<?xml version="1.0" standalone="no"?>
<!DOCTYPE svg PUBLIC "-//W3C//DTD SVG 20010904//EN"
 "http://www.w3.org/TR/2001/REC-SVG-20010904/DTD/svg10.dtd">
<svg version="1.0" xmlns="http://www.w3.org/2000/svg"
 width="50.000000pt" height="39.000000pt" viewBox="0 0 50.000000 39.000000"
 preserveAspectRatio="xMidYMid meet">
<metadata>
Created by potrace 1.16, written by Peter Selinger 2001-2019
</metadata>
<g transform="translate(0.000000,39.000000) scale(0.009766,-0.007617)"
fill="#000000" stroke="none">
<path d="M4432 4858 c-412 -1092 -866 -1997 -1406 -2803 -67 -99 -123 -184
-125 -189 -4 -10 29 -158 38 -169 4 -4 62 70 128 165 571 816 1016 1689 1263
2478 45 143 150 537 150 561 0 5 -6 9 -14 9 -8 0 -23 -23 -34 -52z"/>
<path d="M473 4857 c3 -8 41 -62 83 -118 703 -930 1262 -2286 1565 -3794 33
-165 62 -301 64 -303 7 -7 229 106 290 147 275 183 405 412 405 712 0 174 -42
354 -116 502 l-24 47 -33 -13 c-17 -8 -161 -69 -319 -136 -158 -68 -296 -121
-305 -119 -49 9 -24 44 208 294 127 137 249 268 271 291 47 48 49 33 -34 243
-120 304 -499 1000 -545 1000 -8 0 -139 -21 -289 -46 -150 -26 -281 -44 -289
-40 -10 3 -15 15 -13 28 2 17 60 61 233 175 127 84 229 158 227 164 -5 20
-139 193 -237 306 -221 258 -463 461 -670 563 -148 73 -240 100 -374 107 -92
5 -104 4 -98 -10z"/>
<path d="M4294 4837 c-103 -65 -202 -145 -332 -271 -73 -71 -137 -137 -142
-147 -7 -11 9 -72 53 -202 81 -245 87 -237 -131 -167 -89 29 -166 50 -171 48
-12 -4 -771 -774 -771 -782 0 -3 90 -128 201 -277 110 -150 203 -277 205 -284
3 -7 -2 -20 -11 -28 -19 -19 13 -31 -338 122 -153 67 -282 121 -286 121 -5 0
-25 -21 -46 -46 l-37 -45 61 -144 c77 -179 123 -314 117 -340 -3 -11 -99 -121
-215 -245 -115 -124 -205 -226 -201 -228 5 -2 114 42 244 97 129 56 244 101
255 101 25 0 48 -29 85 -108 16 -34 33 -62 37 -62 8 0 217 316 336 510 331
538 658 1183 931 1840 81 196 222 554 222 565 0 10 -16 3 -66 -28z"/>
<path d="M4534 4833 c-61 -277 -201 -722 -319 -1018 -269 -673 -672 -1400
-1146 -2067 l-119 -167 0 -95 c0 -217 -78 -412 -229 -578 -33 -36 -83 -83
-111 -104 l-50 -38 26 -14 c56 -30 220 -63 334 -69 296 -15 547 111 743 373
72 95 151 238 144 258 -3 7 -143 84 -311 172 -168 87 -308 163 -310 170 -3 7
1 20 8 29 12 17 33 17 402 -5 215 -13 397 -21 406 -18 36 14 216 362 331 638
54 130 189 493 211 567 6 18 -25 48 -213 212 -121 106 -223 196 -226 200 -7
13 4 38 20 44 7 3 133 -32 279 -78 176 -54 269 -79 271 -71 12 34 47 188 69
301 40 209 57 385 57 580 1 267 -35 453 -116 615 -35 70 -121 190 -136 190 -5
0 -11 -12 -15 -27z"/>
<path d="M376 4831 c-3 -5 37 -85 90 -177 613 -1077 1078 -2194 1329 -3192
104 -415 177 -839 201 -1159 4 -51 10 -93 14 -93 4 0 39 14 79 31 53 24 71 37
71 51 0 65 -73 485 -136 788 -267 1273 -739 2462 -1329 3345 -113 170 -294
415 -306 415 -4 0 -10 -4 -13 -9z"/>
<path d="M335 4701 c-32 -101 -14 -659 22 -691 4 -4 88 -38 185 -75 99 -37
179 -74 183 -82 8 -23 -6 -35 -151 -129 -132 -85 -134 -87 -133 -123 0 -56
104 -1059 109 -1064 3 -2 158 -12 345 -21 191 -10 345 -22 353 -28 35 -30 14
-45 -275 -193 -159 -81 -292 -151 -296 -155 -5 -4 1 -57 13 -116 166 -842 562
-1352 1105 -1425 48 -6 89 -8 93 -5 8 8 -30 254 -69 451 -215 1069 -693 2296
-1361 3487 -55 98 -103 180 -108 183 -5 3 -11 -3 -15 -14z"/>
</g>
</svg>
